<svg xmlns="http://www.w3.org/2000/svg" viewBox="0 0 24 24"><title>Instagram</title><path d="M8 12.007a4 4 0 1 1 8-.015A4.002 4.002 0 0 1 12.007 16 4 4 0 0 1 8 12.007zm-2.161.005a6.16 6.16 0 0 0 6.172 6.149 6.162 6.162 0 1 0-6.172-6.149zm11.114-6.427a1.44 1.44 0 1 0 2.88-.005 1.44 1.44 0 1 0-2.88.005zM7.17 21.776c-1.17-.051-1.805-.245-2.228-.408a3.737 3.737 0 0 1-1.382-.895 3.73 3.73 0 0 1-.9-1.378c-.165-.423-.363-1.058-.418-2.228l-.078-4.848.06-4.849c.05-1.169.246-1.805.408-2.228a3.73 3.73 0 0 1 .895-1.382c.42-.421.819-.681 1.379-.9.423-.166 1.057-.362 2.227-.417l4.848-.079 4.849.06c1.169.051 1.805.245 2.228.408.561.217.961.476 1.382.896s.681.817.9 1.378c.166.422.362 1.057.417 2.227l.08 4.848-.061 4.849c-.051 1.17-.245 1.805-.408 2.229-.217.56-.477.961-.896 1.382s-.818.681-1.378.9c-.422.165-1.058.361-2.226.417l-4.85.079c-3.203.006-3.582-.006-4.848-.061zM7.03.083c-1.277.06-2.149.265-2.911.563a5.88 5.88 0 0 0-2.123 1.388 5.87 5.87 0 0 0-1.38 2.128C.321 4.926.12 5.799.064 7.076l-.063 4.947.082 4.948c.061 1.276.265 2.148.563 2.91a5.88 5.88 0 0 0 1.388 2.123 5.888 5.888 0 0 0 2.129 1.38c.763.295 1.636.496 2.913.552l4.946.063 4.948-.082c1.277-.061 2.148-.265 2.911-.563.789-.309 1.458-.72 2.123-1.388s1.074-1.338 1.38-2.128c.295-.764.496-1.637.552-2.913l.063-4.948-.082-4.946c-.061-1.278-.265-2.149-.563-2.912-.309-.789-.72-1.457-1.388-2.123S20.628.921 19.838.617C19.074.321 18.202.12 16.924.064L11.977.001 7.03.083z" fill-rule="nonzero"/></svg>